<?xml version="1.0" standalone="no"?>
<!DOCTYPE svg PUBLIC "-//W3C//DTD SVG 20010904//EN"
 "http://www.w3.org/TR/2001/REC-SVG-20010904/DTD/svg10.dtd">
<svg version="1.0" xmlns="http://www.w3.org/2000/svg"
 width="424.000000pt" height="225.000000pt" viewBox="0 0 424.000000 225.000000"
 preserveAspectRatio="xMidYMid meet">
<metadata>
Created by potrace 1.16, written by Peter Selinger 2001-2019
</metadata>
<g transform="translate(0.000000,225.000000) scale(0.100000,-0.100000)"
fill="#000000" stroke="none">
<path d="M2 1123 l3 -1128 2 1118 3 1117 2115 0 c1403 0 2115 3 2115 10 0 7
-713 10 -2120 10 l-2120 0 2 -1127z"/>
<path d="M259 1365 l-126 -755 208 0 c206 0 207 0 212 23 3 12 22 130 42 262
20 132 39 247 42 255 3 8 29 -100 59 -240 29 -140 56 -265 59 -277 l5 -23 230
0 c127 0 230 3 230 8 0 4 -45 143 -99 309 l-98 301 46 18 c121 46 239 246 257
435 15 166 -68 324 -202 386 -95 43 -183 53 -472 53 l-267 0 -126 -755z m731
724 c139 -22 229 -87 286 -206 53 -112 40 -278 -32 -422 -58 -116 -159 -211
-224 -211 -18 0 -20 -4 -14 -22 7 -25 182 -565 189 -585 3 -10 -43 -13 -208
-13 l-213 0 -62 292 c-34 160 -64 294 -67 296 -3 3 -8 3 -11 -1 -3 -3 -27
-136 -52 -296 l-46 -291 -191 0 -190 0 117 703 c64 386 120 717 123 735 l6 32
262 0 c144 0 291 -5 327 -11z"/>
<path d="M692 1609 c-18 -107 -32 -197 -32 -201 0 -15 72 -8 109 11 115 59
177 224 118 312 -27 40 -58 57 -119 65 l-45 6 -31 -193z m133 157 c71 -30 88
-128 38 -224 -35 -69 -87 -112 -143 -119 -43 -6 -43 -6 -38 23 4 16 16 92 28
169 12 77 24 146 26 153 5 16 47 15 89 -2z"/>
<path d="M1375 1498 c-13 -75 -125 -854 -125 -871 0 -16 10 -17 127 -15 l127
3 62 430 c35 237 65 442 68 458 l6 27 -130 0 -129 0 -6 -32z m179 -420 c-35
-238 -64 -436 -64 -440 0 -5 -49 -8 -110 -8 -60 0 -110 3 -110 8 -1 4 27 202
62 440 l62 432 111 0 112 0 -63 -432z"/>
<path d="M1740 1528 c0 -2 -9 -55 -20 -118 -11 -63 -20 -116 -20 -117 0 -2 29
-3 65 -3 36 0 65 -2 65 -5 0 -3 -25 -154 -55 -336 -30 -182 -55 -333 -55 -335
0 -2 58 -4 128 -4 l129 0 52 318 c29 174 55 327 58 340 5 20 11 22 74 22 63 0
69 2 74 23 6 29 35 200 35 210 0 6 -530 11 -530 5z m506 -50 c-4 -24 -11 -71
-17 -105 l-11 -62 -71 -3 -72 -3 -55 -335 -56 -335 -113 -3 -113 -3 6 28 c10
46 106 631 106 642 0 7 -26 11 -66 11 -58 0 -65 2 -60 18 3 9 10 54 17 99 l12
83 246 3 c135 1 248 3 250 5 2 1 1 -17 -3 -40z"/>
<path d="M2335 1508 c-6 -30 -35 -201 -35 -210 0 -5 30 -8 66 -8 l66 0 -6 -27
c-7 -34 -106 -638 -106 -647 0 -3 58 -6 128 -6 l128 0 53 323 c29 177 55 330
57 340 4 14 17 17 74 17 l69 0 10 53 c14 73 31 169 31 179 0 4 -119 8 -265 8
l-265 0 -5 -22z m499 -97 l-17 -101 -72 0 -71 0 -53 -322 c-29 -178 -54 -331
-57 -340 -5 -16 -19 -18 -115 -18 -60 0 -109 2 -109 6 0 3 25 153 55 334 30
181 55 331 55 334 0 4 -30 6 -66 6 -64 0 -66 1 -61 23 3 12 11 57 18 99 l12
78 246 2 c135 2 247 2 249 2 1 -1 -5 -47 -14 -103z"/>
<path d="M2910 1520 c0 -11 -126 -821 -136 -878 l-6 -32 243 2 244 3 12 85 c6
47 12 97 12 113 l1 27 -106 0 -107 0 7 46 c3 26 6 55 6 65 0 17 9 19 100 19
95 0 100 1 105 23 6 28 25 174 25 193 0 11 -19 14 -90 14 -100 0 -100 0 -84
79 l7 31 103 0 c57 0 104 3 104 8 0 11 19 142 25 180 l6 32 -236 0 c-156 0
-235 -3 -235 -10z m446 -32 c-3 -15 -8 -57 -12 -93 l-7 -65 -103 0 c-56 0
-105 -4 -108 -8 -3 -5 -8 -39 -12 -75 l-7 -67 92 0 c66 0 91 -3 91 -12 0 -7
-5 -50 -12 -95 l-11 -83 -97 0 c-112 0 -103 8 -116 -107 l-7 -63 108 0 108 0
-7 -62 c-4 -35 -9 -78 -13 -95 l-5 -33 -225 0 -225 0 6 28 c3 15 33 203 66
417 33 215 63 401 65 415 l5 25 216 0 216 0 -6 -27z"/>
<path d="M3516 1503 c-10 -46 -146 -871 -146 -883 0 -7 42 -10 127 -8 l128 3
26 160 c15 88 27 158 28 155 1 -3 16 -75 34 -160 l33 -155 142 -3 c78 -1 142
1 142 5 0 5 -27 89 -59 188 l-58 180 27 12 c68 30 138 146 154 256 15 101 -43
209 -134 251 -40 18 -69 21 -242 24 l-196 4 -6 -29z m454 -23 c28 -16 55 -43
75 -74 26 -44 30 -58 29 -120 -1 -48 -8 -90 -24 -129 -28 -73 -95 -147 -133
-147 -15 0 -27 -4 -27 -8 0 -4 16 -55 35 -113 20 -57 46 -139 59 -181 l24 -78
-123 0 -123 0 -15 68 c-8 37 -25 115 -37 175 -14 64 -27 107 -35 107 -7 0 -18
-42 -29 -117 -10 -65 -22 -144 -28 -175 l-10 -58 -109 0 c-60 0 -109 3 -109 8
0 4 32 202 72 440 l71 433 196 -3 c187 -3 198 -4 241 -28z"/>
<path d="M3706 1233 c-10 -60 -20 -116 -22 -125 -4 -15 1 -18 30 -18 75 0 151
110 126 184 -12 39 -51 66 -93 66 -23 0 -25 -5 -41 -107z m99 62 c30 -29 31
-56 6 -111 -21 -46 -54 -74 -87 -74 -21 0 -21 0 -7 93 8 50 16 98 18 105 7 20
44 14 70 -13z"/>
<path d="M140 310 l0 -230 1975 0 1975 0 0 230 0 230 -1975 0 -1975 0 0 -230z
m380 40 l0 -140 70 0 70 0 0 -40 0 -40 -115 0 -115 0 0 180 0 180 45 0 45 0 0
-140z m510 17 c0 -140 7 -160 60 -160 59 0 70 26 70 164 l0 119 45 0 45 0 0
-127 c0 -154 -11 -186 -80 -221 -78 -40 -168 -18 -210 51 -17 27 -20 51 -20
165 l0 132 45 0 45 0 0 -123z m709 16 c20 -57 38 -103 41 -103 3 0 21 46 40
103 l35 102 68 3 67 3 0 -181 0 -180 -45 0 -45 0 0 123 -1 122 -29 -80 c-67
-181 -59 -166 -94 -163 -30 3 -32 7 -73 118 l-42 115 -1 -117 0 -118 -45 0
-45 0 0 180 0 181 67 -3 67 -3 35 -102z m800 92 c16 -8 31 -22 35 -30 12 -34
6 -82 -14 -100 -19 -17 -19 -18 12 -46 27 -26 30 -34 25 -72 -10 -77 -66 -102
-212 -95 l-70 3 -3 178 -2 177 100 0 c69 0 110 -5 129 -15z m621 -20 l0 -35
-80 0 -80 0 0 -35 0 -35 75 0 75 0 0 -35 0 -35 -75 0 -75 0 0 -35 0 -35 80 0
80 0 0 -40 0 -40 -125 0 -125 0 0 180 0 180 125 0 125 0 0 -35z m540 20 c37
-19 50 -43 50 -90 0 -45 -13 -71 -45 -87 l-24 -13 45 -73 c24 -40 44 -75 44
-78 0 -3 -23 -4 -52 -2 l-52 3 -35 67 c-48 90 -66 90 -66 1 l0 -68 -42 -3 -43
-3 0 180 0 181 95 0 c66 0 105 -5 125 -15z"/>
<path d="M2400 385 c0 -33 2 -35 34 -35 31 0 66 20 66 39 0 17 -27 31 -62 31
-37 0 -38 -1 -38 -35z"/>
<path d="M2400 244 l0 -35 46 3 c87 6 84 68 -2 68 -44 0 -44 0 -44 -36z"/>
<path d="M3560 380 c0 -38 2 -40 31 -40 43 0 69 17 69 44 0 27 -17 36 -66 36
-33 0 -34 -1 -34 -40z"/>
</g>
</svg>
