<?xml version="1.0" standalone="no"?>
<!DOCTYPE svg PUBLIC "-//W3C//DTD SVG 20010904//EN"
 "http://www.w3.org/TR/2001/REC-SVG-20010904/DTD/svg10.dtd">
<svg version="1.0" xmlns="http://www.w3.org/2000/svg"
 width="424.000000pt" height="225.000000pt" viewBox="0 0 424.000000 225.000000"
 preserveAspectRatio="xMidYMid meet">
<metadata>
Created by potrace 1.16, written by Peter Selinger 2001-2019
</metadata>
<g transform="translate(0.000000,225.000000) scale(0.100000,-0.100000)"
fill="#000000" stroke="none">
<path d="M2 1123 l3 -1128 2 1118 3 1117 2115 0 c1403 0 2115 3 2115 10 0 7
-713 10 -2120 10 l-2120 0 2 -1127z"/>
<path d="M261 1383 c-67 -406 -125 -746 -127 -755 -5 -17 9 -18 204 -18 159 0
211 3 214 13 3 6 22 125 43 262 21 138 41 253 44 257 4 4 28 -97 54 -225 27
-128 53 -249 58 -269 l10 -38 229 0 c127 0 230 3 230 8 0 4 -43 139 -95 301
-52 162 -95 298 -95 302 0 5 21 18 48 29 130 58 251 287 252 476 0 101 -56
229 -128 292 -45 39 -114 70 -195 86 -58 12 -139 16 -350 16 l-274 0 -122
-737z m559 381 c25 -10 47 -28 55 -45 17 -33 20 -106 4 -146 -29 -79 -113
-153 -173 -153 -25 0 -26 2 -21 33 3 17 14 88 25 157 11 69 23 135 25 148 6
27 29 28 85 6z"/>
<path d="M1376 1508 c-9 -42 -126 -856 -126 -877 0 -20 5 -21 125 -21 92 0
127 3 130 13 2 6 32 203 65 437 34 234 64 435 67 448 5 22 5 22 -126 22 -127
0 -131 -1 -135 -22z"/>
<path d="M1731 1478 c-14 -74 -31 -170 -31 -180 0 -4 29 -8 65 -8 36 0 65 -2
65 -4 0 -2 -25 -152 -55 -334 -30 -182 -55 -334 -55 -337 0 -3 59 -5 130 -5
72 0 130 2 130 6 0 3 25 153 55 334 30 181 55 331 55 334 0 3 33 6 72 8 l73 3
17 100 c9 55 17 108 17 118 1 16 -18 17 -263 17 l-265 0 -10 -52z"/>
<path d="M2336 1513 c-7 -23 -36 -194 -36 -210 0 -9 20 -13 66 -13 l66 0 -6
-27 c-10 -47 -106 -631 -106 -642 0 -7 45 -11 128 -11 l129 0 52 318 c29 174
55 327 58 340 5 20 11 22 74 22 63 0 69 2 74 23 6 29 35 200 35 210 0 4 -119
7 -264 7 -243 0 -265 -1 -270 -17z"/>
<path d="M2910 1523 c0 -5 -31 -208 -70 -453 -38 -245 -70 -448 -70 -452 0 -5
110 -8 243 -8 l244 0 11 94 c19 150 29 136 -94 136 l-105 0 6 58 c4 31 10 60
14 64 3 4 49 8 101 10 l95 3 11 85 c7 47 13 97 13 113 l1 27 -90 0 c-100 0
-100 0 -84 79 l7 31 103 0 103 0 5 33 c8 48 26 175 26 181 0 3 -106 6 -235 6
-129 0 -235 -3 -235 -7z"/>
<path d="M3515 1508 c-9 -40 -145 -866 -145 -883 0 -13 19 -15 128 -15 l128 0
24 155 c13 85 25 153 28 150 3 -2 19 -71 36 -152 l31 -148 143 -3 c78 -1 142
1 142 5 0 5 -26 90 -59 190 -58 181 -58 182 -36 187 36 9 112 101 136 164 45
116 26 235 -48 303 -63 59 -81 63 -300 67 l-202 4 -6 -24z m290 -213 c14 -13
25 -33 25 -45 0 -57 -62 -140 -105 -140 l-22 0 14 83 c7 45 16 92 18 105 7 30
39 29 70 -3z"/>
<path d="M140 310 l0 -230 1975 0 1975 0 0 230 0 230 -1975 0 -1975 0 0 -230z
m380 40 l0 -140 71 0 70 0 -3 -37 -3 -38 -112 -3 -113 -3 0 181 0 180 45 0 45
0 0 -140z m510 17 c0 -133 6 -151 52 -162 21 -5 33 -1 52 19 25 24 26 30 26
146 l0 120 46 0 46 0 -4 -137 c-3 -115 -6 -143 -22 -166 -58 -86 -212 -83
-266 5 -17 29 -20 50 -20 166 l0 132 45 0 45 0 0 -123z m706 23 c19 -52 37
-102 40 -110 4 -9 22 30 43 95 l38 110 67 3 66 3 -2 -178 -3 -178 -42 -3 -43
-3 -1 123 0 123 -46 -123 -45 -123 -32 3 c-30 3 -32 7 -71 116 l-40 113 -5
-113 -5 -113 -40 0 -40 0 -3 178 -2 178 66 -3 66 -3 34 -95z m803 85 c33 -16
41 -33 41 -80 0 -24 -7 -39 -25 -53 -25 -20 -25 -21 -5 -27 28 -9 55 -66 46
-99 -15 -61 -73 -86 -198 -86 l-78 0 0 180 0 180 95 0 c65 0 105 -5 124 -15z
m611 -20 l0 -35 -75 0 -75 0 0 -35 0 -35 76 0 75 0 -3 -32 -3 -33 -72 -3 -73
-3 0 -34 0 -35 80 0 80 0 0 -40 0 -40 -125 0 -125 0 0 180 0 180 120 0 120 0
0 -35z m550 20 c37 -19 50 -43 50 -90 0 -45 -13 -71 -45 -88 l-25 -13 45 -72
c25 -40 45 -74 45 -77 0 -3 -22 -5 -49 -5 l-50 0 -41 76 c-23 41 -47 73 -53
71 -7 -2 -13 -32 -15 -75 l-3 -72 -39 0 -40 0 0 180 0 180 95 0 c66 0 105 -5
125 -15z"/>
<path d="M2400 386 c0 -34 2 -36 33 -36 81 0 89 62 8 68 -41 3 -41 3 -41 -32z"/>
<path d="M2403 274 c-2 -7 -3 -25 -1 -41 3 -26 6 -28 43 -26 82 6 86 63 5 74
-29 4 -43 2 -47 -7z"/>
<path d="M3560 379 l0 -40 41 3 c52 4 80 36 54 62 -10 9 -33 16 -56 16 -39 0
-39 0 -39 -41z"/>
</g>
</svg>
